<svg width="548" height="104" viewBox="0 0 548 104" fill="none" xmlns="http://www.w3.org/2000/svg">
<path d="M52.3339 73.0942C52.3339 79.3678 47.2457 84.4448 40.9833 84.4448C34.721 84.4448 29.6216 79.3566 29.6216 73.0942C29.6216 66.8318 34.7098 61.7437 40.9722 61.7437C47.2345 61.7437 52.3227 66.8318 52.3227 73.0942" fill="#4FA6FF"/>
<path d="M59.1663 19.9999L38.4487 29.2803L63.1584 84.442L83.8759 75.1615L59.1663 19.9999Z" fill="#4FA6FF"/>
<path d="M89.3 20.0077L68.5825 29.2881L93.2922 84.4498L114.01 75.1693L89.3 20.0077Z" fill="#4FA6FF"/>
<path d="M145.756 36.7949H151.94L163.257 65.3111L174.216 36.7949H180.356V73.3963H175.905V42.5764L163.771 73.3963H162.385L149.849 42.5764V73.3963H145.756V36.7949Z" fill="#001042"/>
<path d="M206.724 57.4271C206.311 51.9028 203.448 49.6997 199.042 49.6997C194.636 49.6997 191.773 52.6744 191.057 57.4271H206.724ZM186.506 60.2899V59.8761C186.506 51.7909 191.672 46.1548 199.042 46.1548C205.237 46.1548 211.074 49.8899 211.074 59.4624V60.849H190.901C191.102 66.9437 194.021 70.3209 199.5 70.3209C203.649 70.3209 206.053 68.7888 206.613 65.6576H210.862C209.945 71.0366 205.483 73.8547 199.444 73.8547C191.874 73.8547 186.495 68.5316 186.495 60.2899" fill="#001042"/>
<path d="M235.039 57.4271C234.626 51.9028 231.763 49.6997 227.357 49.6997C222.951 49.6997 220.088 52.6744 219.372 57.4271H235.039ZM214.821 60.2899V59.8761C214.821 51.7909 219.987 46.1548 227.357 46.1548C233.552 46.1548 239.389 49.8899 239.389 59.4624V60.849H219.216C219.417 66.9437 222.336 70.3209 227.815 70.3209C231.964 70.3209 234.368 68.7888 234.927 65.6576H239.177C238.26 71.0366 233.798 73.8547 227.759 73.8547C220.188 73.8547 214.81 68.5316 214.81 60.2899" fill="#001042"/>
<path d="M246.054 66.6864V50.2029H242.219V46.6244H246.054V40.5298H250.304V46.6244H256.544V50.2029H250.304V66.2838C250.304 68.8894 251.478 70.1755 253.625 70.1755C254.956 70.1755 255.985 69.9742 256.902 69.6163V73.1948C256.03 73.4968 255.012 73.754 253.267 73.754C248.403 73.754 246.043 70.8912 246.043 66.6864" fill="#001042"/>
<path d="M262.637 46.6246H266.887V73.3963H262.637V46.6246ZM261.866 38.2263C261.866 36.6942 263.152 35.4082 264.684 35.4082C266.216 35.4082 267.502 36.683 267.502 38.2263C267.502 39.7695 266.227 41.0443 264.684 41.0443C263.141 41.0443 261.866 39.7695 261.866 38.2263Z" fill="#001042"/>
<path d="M274.827 46.6245H279.077V50.874C280.307 48.369 283.27 46.166 287.676 46.166C293.201 46.166 297.092 49.1854 297.092 56.9686V73.3962H292.843V56.6555C292.843 51.9475 290.841 49.8452 286.547 49.8452C282.61 49.8452 279.077 52.3501 279.077 57.1699V73.3962H274.827V46.6245Z" fill="#001042"/>
<path d="M324.088 59.5183V59.1604C324.088 53.1664 320.811 49.6886 315.589 49.6886C310.367 49.6886 307.09 53.6249 307.09 59.2611V59.6748C307.09 65.5123 310.825 68.9901 315.332 68.9901C320.297 68.9901 324.088 65.5123 324.088 59.5183ZM303.254 74.9282H307.605C308.22 78.0035 310.78 79.5803 315.332 79.5803C320.599 79.5803 323.931 77.0753 323.931 71.3385V67.4469C322.399 70.0637 318.765 72.5127 314.873 72.5127C307.862 72.5127 302.684 67.1897 302.684 59.8202V59.4624C302.684 52.1935 307.806 46.1548 315.175 46.1548C319.626 46.1548 322.399 48.3019 323.931 50.9187V46.6133H328.181V71.5957C328.125 79.379 322.858 83.1699 315.388 83.1699C307.448 83.1699 303.97 79.4349 303.254 74.9282Z" fill="#001042"/>
<path d="M347.326 66.9438C354.696 66.9438 358.185 62.795 358.185 55.2242V54.8105C358.185 47.2844 354.964 43.2362 347.226 43.2362H343.949V66.9326H347.326V66.9438ZM335.651 36.7949H347.628C360.477 36.7949 366.829 43.7506 366.829 54.7098V55.1236C366.829 66.0827 360.432 73.3963 347.583 73.3963H335.651V36.7949Z" fill="#001042"/>
<path d="M389.932 60.1891V59.8313C389.932 54.7095 387.528 51.6454 383.379 51.6454C379.23 51.6454 376.826 54.6089 376.826 59.7306V60.1332C376.826 65.2549 379.186 68.3302 383.379 68.3302C387.573 68.3302 389.932 65.2549 389.932 60.1891ZM369.244 60.2897V59.876C369.244 51.4777 375.339 46.0093 383.379 46.0093C391.42 46.0093 397.458 51.3882 397.458 59.7306V60.1332C397.458 68.5762 391.364 73.9552 383.323 73.9552C375.283 73.9552 369.244 68.6321 369.244 60.2897Z" fill="#001042"/>
<path d="M399.504 60.3344V59.9207C399.504 51.2652 405.7 45.998 413.326 45.998C419.522 45.998 425.258 48.7155 425.918 56.3869H418.907C418.392 53.2669 416.502 51.8355 413.483 51.8355C409.647 51.8355 407.086 54.6983 407.086 59.82V60.2338C407.086 65.6127 409.491 68.3749 413.639 68.3749C416.603 68.3749 419.018 66.6304 419.376 63.2084H426.086C425.672 69.5603 421.065 73.9551 413.282 73.9551C405.498 73.9551 399.516 69.0906 399.516 60.3344" fill="#001042"/>
<path d="M430.582 65.4566V51.8919H427.149V46.6136H430.582V40.832H437.952V46.6136H443.588V51.8919H437.952V64.7968C437.952 66.9439 439.025 67.9728 440.926 67.9728C442.056 67.9728 442.872 67.8162 443.744 67.4583V73.1951C442.715 73.553 441.239 73.9108 439.238 73.9108C433.601 73.9108 430.582 71.048 430.582 65.4678" fill="#001042"/>
<path d="M466.524 60.1891V59.8313C466.524 54.7095 464.119 51.6454 459.971 51.6454C455.822 51.6454 453.417 54.6089 453.417 59.7306V60.1332C453.417 65.2549 455.777 68.3302 459.971 68.3302C464.164 68.3302 466.524 65.2549 466.524 60.1891ZM445.847 60.2897V59.876C445.847 51.4777 451.941 46.0093 459.982 46.0093C468.022 46.0093 474.061 51.3882 474.061 59.7306V60.1332C474.061 68.5762 467.966 73.9552 459.926 73.9552C451.885 73.9552 445.847 68.6321 445.847 60.2897Z" fill="#001042"/>
<path d="M477.74 46.6247H485.165V51.7465C486.854 48.168 489.471 46.2669 493.821 46.2222V53.1332C488.341 53.0772 485.165 54.8777 485.165 59.9882V73.4076H477.74V46.6359V46.6247Z" fill="#001042"/>
<path d="M495.453 64.9977H502.364C502.677 67.402 503.851 68.7887 507.072 68.7887C509.946 68.7887 511.266 67.7151 511.266 65.87C511.266 64.0248 509.678 63.2644 505.842 62.6941C498.73 61.6205 495.956 59.574 495.956 54.3517C495.956 48.7714 501.078 46.0093 506.558 46.0093C512.496 46.0093 516.946 48.1564 517.617 54.3069H510.807C510.393 52.1039 509.163 51.0863 506.614 51.0863C504.209 51.0863 502.823 52.2157 502.823 53.8484C502.823 55.4811 504.097 56.208 507.989 56.7672C514.699 57.7401 518.378 59.4287 518.378 65.1655C518.378 70.9022 514.184 73.9663 507.117 73.9663C500.049 73.9663 495.699 70.7904 495.442 65.0089" fill="#001042"/>
</svg>
